<?xml version="1.0" standalone="no"?><!DOCTYPE svg PUBLIC "-//W3C//DTD SVG 1.1//EN" "http://www.w3.org/Graphics/SVG/1.1/DTD/svg11.dtd"><svg t="1580468275992" class="icon" viewBox="0 0 1024 1024" version="1.1" xmlns="http://www.w3.org/2000/svg" p-id="8629" xmlns:xlink="http://www.w3.org/1999/xlink" width="16" height="16"><defs><style type="text/css"></style></defs><path d="M512 491c-80.8 0-154.6-11.8-207.7-33.3C248 435 217 402.4 217 366s31-69 87.3-91.7c53.2-21.5 127-33.3 207.7-33.3s154.6 11.8 207.7 33.3C776 297 807 329.6 807 366s-31 69-87.3 91.7C666.6 479.2 592.8 491 512 491z m0-220c-77 0-146.8 11.1-196.5 31.1C272 319.7 247 343 247 366s25 46.3 68.5 63.9C365.2 449.9 435 461 512 461s146.8-11.1 196.5-31.1C752 412.3 777 389 777 366s-25-46.3-68.5-63.9C658.8 282.1 589 271 512 271zM512 637c-80.8 0-154.6-11.8-207.7-33.3C248 581 217 548.4 217 512c0-8.3 6.7-15 15-15s15 6.7 15 15c0 23 25 46.3 68.5 63.9C365.2 595.9 435 607 512 607s146.8-11.1 196.5-31.1C752 558.3 777 535 777 512c0-8.3 6.7-15 15-15s15 6.7 15 15c0 36.4-31 69-87.3 91.7C666.6 625.2 592.8 637 512 637zM512 783c-80.8 0-154.6-11.8-207.7-33.3C248 727 217 694.4 217 658c0-8.3 6.7-15 15-15s15 6.7 15 15c0 23 25 46.3 68.5 63.9C365.2 741.9 435 753 512 753s146.8-11.1 196.5-31.1C752 704.3 777 681 777 658c0-8.3 6.7-15 15-15s15 6.7 15 15c0 36.4-31 69-87.3 91.7C666.6 771.2 592.8 783 512 783z" fill="#1296db" p-id="8630"></path></svg>