<?xml version="1.0" standalone="no"?><!DOCTYPE svg PUBLIC "-//W3C//DTD SVG 1.1//EN" "http://www.w3.org/Graphics/SVG/1.1/DTD/svg11.dtd"><svg t="1580478034136" class="icon" viewBox="0 0 1024 1024" version="1.1" xmlns="http://www.w3.org/2000/svg" p-id="1119" width="64" height="64" xmlns:xlink="http://www.w3.org/1999/xlink"><defs><style type="text/css"></style></defs><path d="M1023.999573 700.927708V197.119918A196.863918 196.863918 0 0 0 826.879655 0H197.119918A196.863918 196.863918 0 0 0 0 197.119918v630.271737A196.778585 196.778585 0 0 0 197.119918 1023.999573h630.271737a197.375918 197.375918 0 0 0 194.047919-162.133265c-52.223978-22.527991-278.527884-120.31995-396.287834-176.639927-89.599963 108.543955-183.807923 174.079927-325.119865 174.079928S63.999973 772.266345 75.263969 665.087723c7.679997-70.143971 55.807977-184.831923 264.19189-164.863931a939.732942 939.732942 0 0 1 250.367895 60.415974 702.250374 702.250374 0 0 0 56.831977-139.263942H248.319897v-39.423983h196.607918V311.466537H204.799915V267.775888h240.1279V165.887931a18.986659 18.986659 0 0 1 19.967991-15.871994h98.133293v118.271951h255.999893v43.519982h-255.999893v70.655971h209.066579a794.282336 794.282336 0 0 1-84.479965 212.479911c60.415975 21.333324 336.38386 105.983956 336.38386 105.983956zM283.647882 791.55167c-149.333271 0-173.055928-94.719961-165.375931-134.143944a127.999947 127.999947 0 0 1 134.655944-90.623962 628.991738 628.991738 0 0 1 284.159881 74.239969c-72.70397 94.719961-161.279933 150.527937-253.439894 150.527937z" fill="#06B4FD" p-id="1120"></path></svg>