<?xml version="1.0" standalone="no"?><!DOCTYPE svg PUBLIC "-//W3C//DTD SVG 1.1//EN" "http://www.w3.org/Graphics/SVG/1.1/DTD/svg11.dtd"><svg t="1580648869622" class="icon" viewBox="0 0 1024 1024" version="1.1" xmlns="http://www.w3.org/2000/svg" p-id="10336" width="32" height="32" xmlns:xlink="http://www.w3.org/1999/xlink"><defs><style type="text/css"></style></defs><path d="M907.6 894H116.4V128.2h791.2V894z m-748-43.2h704.9V171.3H159.6v679.5z" fill="#737373" p-id="10337"></path><path d="M907.6 895.8H116.4V550l7.2-6.4C230.6 448 368.5 395.4 512 395.4c143.5 0 281.4 52.6 388.4 148.1l7.2 6.4v345.9z m-748-43.1h704.9V569.4C766.4 485 641.7 438.6 512 438.6S257.6 485 159.6 569.4v283.3z" fill="#737373" p-id="10338"></path><path d="M512 787.7c-68.5 0-124.2-55.7-124.2-124.2S443.5 539.2 512 539.2 636.2 595 636.2 663.5 580.5 787.7 512 787.7z m0-210.7c-47.7 0-86.4 38.8-86.4 86.4s38.8 86.4 86.4 86.4 86.4-38.8 86.4-86.4S559.7 577 512 577z" fill="#737373" p-id="10339"></path><path d="M747.1 350.1c26.8 0 48.7-21.9 48.7-48.7 0-26.8-21.9-48.7-48.7-48.7-26.8 0-48.7 21.9-48.7 48.7-0.1 26.9 21.8 48.7 48.7 48.7z" fill="#737373" p-id="10340"></path></svg>