<?xml version="1.0" standalone="no"?><!DOCTYPE svg PUBLIC "-//W3C//DTD SVG 1.1//EN" "http://www.w3.org/Graphics/SVG/1.1/DTD/svg11.dtd"><svg t="1580647733393" class="icon" viewBox="0 0 1024 1024" version="1.1" xmlns="http://www.w3.org/2000/svg" p-id="11090" xmlns:xlink="http://www.w3.org/1999/xlink" width="64" height="64"><defs><style type="text/css"></style></defs><path d="M853.333333 712.021333C853.333333 766.421333 801.877333 810.666667 738.645333 810.666667H285.354667C222.122667 810.666667 170.666667 766.421333 170.666667 712.021333V311.978667C170.666667 257.621333 222.122667 213.333333 285.354667 213.333333h272.469333V170.666667H285.354667C198.570667 170.666667 128 234.069333 128 311.978667v400C128 789.930667 198.570667 853.333333 285.354667 853.333333h453.333333C825.429333 853.333333 896 789.930667 896 712.021333v-240.213333h-42.666667v240.213333z" fill="#1296db" p-id="11091"></path><path d="M648.576 170.666667v42.666666h173.056l-204.928 204.928a21.333333 21.333333 0 0 0 30.165333 30.165334L853.333333 241.962667v150.357333h42.666667V170.666667h-247.424z" fill="#1296db" p-id="11092"></path></svg>