<?xml version="1.0" standalone="no"?><!DOCTYPE svg PUBLIC "-//W3C//DTD SVG 1.1//EN" "http://www.w3.org/Graphics/SVG/1.1/DTD/svg11.dtd"><svg t="1580648684444" class="icon" viewBox="0 0 1024 1024" version="1.1" xmlns="http://www.w3.org/2000/svg" p-id="12913" width="16" height="16" xmlns:xlink="http://www.w3.org/1999/xlink"><defs><style type="text/css"></style></defs><path d="M631.466667 365.714286h104.838095v168.228571h-104.838095z" fill="#1296db" p-id="12914"></path><path d="M811.885714 12.190476H207.238095c-107.27619 0-195.047619 87.771429-195.047619 195.047619v604.647619c0 107.27619 87.771429 195.047619 195.047619 195.047619h604.647619c107.27619 0 195.047619-87.771429 195.047619-195.047619V207.238095c0-107.27619-87.771429-195.047619-195.047619-195.047619zM268.190476 824.07619c-21.942857 0-46.32381 0-73.142857-2.438095-2.438095-19.504762-4.87619-36.571429-9.752381-58.514285 26.819048 4.87619 53.638095 7.314286 75.580952 7.314285 41.447619 0 60.952381-36.571429 60.952381-107.27619 0-43.885714 0-85.333333-4.87619-124.342857-31.695238 43.885714-68.266667 82.895238-112.152381 117.028571-7.314286-9.752381-19.504762-21.942857-34.133333-36.571429 56.07619-41.447619 102.4-90.209524 138.971428-143.847619-4.87619-34.133333-12.190476-63.390476-24.380952-90.209523-26.819048 24.380952-51.2 46.32381-78.019048 65.828571-7.314286-9.752381-19.504762-21.942857-34.133333-36.571429 31.695238-21.942857 60.952381-46.32381 90.209524-75.580952-19.504762-36.571429-46.32381-70.704762-78.019048-102.4l36.571429-26.819048c31.695238 29.257143 56.07619 60.952381 78.019047 92.64762 24.380952-26.819048 46.32381-56.07619 68.266667-85.333334l41.447619 26.819048c-26.819048 36.571429-56.07619 73.142857-85.333333 102.4 34.133333 68.266667 48.761905 177.980952 48.761904 321.828571-2.438095 104.838095-36.571429 156.038095-104.838095 156.038095z m516.876191 12.190477c-9.752381-21.942857-17.066667-43.885714-26.819048-63.390477-99.961905 9.752381-221.866667 24.380952-360.838095 39.009524l-9.752381-53.638095c70.704762-4.87619 136.533333-9.752381 195.047619-14.628571v-163.352381h-104.838095V609.52381h-48.761905V319.390476h153.6V195.047619H633.904762v124.342857h153.6v260.876191H633.904762v158.47619c39.009524-2.438095 73.142857-7.314286 107.27619-9.752381-12.190476-26.819048-24.380952-56.07619-39.009523-80.457143l43.885714-19.504762c36.571429 68.266667 65.828571 129.219048 90.209524 185.295239l-51.2 21.942857z" fill="#1296db" p-id="12915"></path><path d="M477.866667 365.714286h104.838095v168.228571h-104.838095z" fill="#1296db" p-id="12916"></path></svg>