<?xml version="1.0" standalone="no"?><!DOCTYPE svg PUBLIC "-//W3C//DTD SVG 1.1//EN" "http://www.w3.org/Graphics/SVG/1.1/DTD/svg11.dtd"><svg t="1580476896756" class="icon" viewBox="0 0 1024 1024" version="1.1" xmlns="http://www.w3.org/2000/svg" p-id="16139" xmlns:xlink="http://www.w3.org/1999/xlink" width="16" height="16"><defs><style type="text/css"></style></defs><path d="M489.833782 654.342355a35.819374 35.819374 0 0 1-42.642112 5.969895C443.780301 658.606566 288.563014 517.887596 288.563014 517.887596a36.672216 36.672216 0 0 1-11.08695-25.585267 33.260847 33.260847 0 0 1 11.08695-24.732425 40.083585 40.083585 0 0 1 53.729061 0L462.54283 580.14508l225.150351-212.357718a40.083585 40.083585 0 0 1 53.729061 0 34.966532 34.966532 0 0 1 0 50.317693L489.833782 654.342355z m365.016478-413.628486a63.110326 63.110326 0 0 0-41.78927-62.257483L537.592947 75.262475a85.284224 85.284224 0 0 0-49.46485 0L212.660054 178.456386a64.81601 64.81601 0 0 0-41.789269 62.257483v226.856035a426.421119 426.421119 0 0 0 155.217287 332.608473l151.805918 115.986545a55.434745 55.434745 0 0 0 35.819374 11.939791 57.993272 57.993272 0 0 0 35.819374-11.939791L699.632972 800.178377a426.421119 426.421119 0 0 0 155.217288-332.608473V240.713869z m-300.200468 767.558014a65.668852 65.668852 0 0 1-85.284224 0L288.563014 870.111441A511.705343 511.705343 0 0 1 102.643406 472.686958V202.335968a77.608644 77.608644 0 0 1 50.317692-74.197275L482.158202 4.476569a98.9297 98.9297 0 0 1 58.846114 0L870.20142 128.138693a77.608644 77.608644 0 0 1 50.317692 74.197275v271.203832a506.58829 506.58829 0 0 1-184.213923 396.571641z" p-id="16140" fill="#ffffff"></path></svg>