<?xml version="1.0" standalone="no"?><!DOCTYPE svg PUBLIC "-//W3C//DTD SVG 1.1//EN" "http://www.w3.org/Graphics/SVG/1.1/DTD/svg11.dtd"><svg t="1580476425443" class="icon" viewBox="0 0 1024 1024" version="1.1" xmlns="http://www.w3.org/2000/svg" p-id="14084" xmlns:xlink="http://www.w3.org/1999/xlink" width="16" height="16"><defs><style type="text/css"></style></defs><path d="M512 64C264.96 64 64 264.96 64 512s200.96 448 448 448 448-200.96 448-448-200.96-448-448-448z m0 836.992A389.44 389.44 0 0 1 123.008 512 389.44 389.44 0 0 1 512 123.008 389.44 389.44 0 0 1 900.992 512 389.504 389.504 0 0 1 512 900.992z m162.432-551.36a29.504 29.504 0 0 0-41.792 0L512 470.208 391.36 349.632a29.504 29.504 0 1 0-41.728 41.728L470.208 512 349.632 632.64a29.504 29.504 0 1 0 41.728 41.792L512 553.792l120.64 120.64a29.44 29.44 0 0 0 41.792-41.792L553.792 512l120.64-120.64a29.504 29.504 0 0 0 0-41.728z" p-id="14085" fill="#ffffff"></path></svg>