<?xml version="1.0" standalone="no"?><!DOCTYPE svg PUBLIC "-//W3C//DTD SVG 1.1//EN" "http://www.w3.org/Graphics/SVG/1.1/DTD/svg11.dtd"><svg t="1580647580206" class="icon" viewBox="0 0 1383 1024" version="1.1" xmlns="http://www.w3.org/2000/svg" p-id="7692" xmlns:xlink="http://www.w3.org/1999/xlink" width="86.4375" height="64"><defs><style type="text/css"></style></defs><path d="M1324.818303 325.169762v228.63067l48.214255 48.214255-100.575378 104.390497-101.736501-101.404752 69.612095-63.308855V361.109287c-295.422894 121.641469-390.026782 159.57149-455.602592 189.207776a204.855292 204.855292 0 0 1-177.651836 4.92095C542.110743 530.799136 232.809664 417.893737 79.154372 344.35594c-102.455292-49.09892-109.145572-80.117495 1.714039-121.641469C225.566467 167.754644 464.536661 79.785745 591.264955 31.737365c75.03067-30.410367 114.67473-46.942549 183.512743-12.330022 122.968467 50.757667 403.62851 156.253996 543.57149 213.923111 121.973218 52.914039 40.141685 70.386177 6.30324 91.673434m-525.601728 315.936069c71.492009-29.47041 167.865227-78.237581 272.698056-123.134341v361.164578a539.590497 539.590497 0 0 1-374.600432 144.47689 571.825486 571.825486 0 0 1-395.998272-144.47689v-337.278617c81.00216 33.174946 172.067387 61.428942 282.263499 99.082505a283.314039 283.314039 0 0 0 215.637149 0" fill="#1296db" p-id="7693"></path></svg>