<?xml version="1.0" standalone="no"?><!DOCTYPE svg PUBLIC "-//W3C//DTD SVG 1.1//EN" "http://www.w3.org/Graphics/SVG/1.1/DTD/svg11.dtd"><svg t="1580468199986" class="icon" viewBox="0 0 1024 1024" version="1.1" xmlns="http://www.w3.org/2000/svg" p-id="7402" xmlns:xlink="http://www.w3.org/1999/xlink" width="16" height="16"><defs><style type="text/css"></style></defs><path d="M480.69565244 449.66521777v-93.91304355H198.95652177a46.95652177 46.95652177 0 0 0-46.95652177 46.95652177v46.95652178h328.69565244z m62.60869512 0h328.69565244v-46.95652178a46.95652177 46.95652177 0 0 0-46.95652177-46.95652177h-281.73913067v93.91304355z m-62.60869512 430.43478223v-367.82608711H191.13043467v281.73913067a86.08695645 86.08695645 0 0 0 86.08695645 86.08695644h203.47826132z m62.60869512 0H746.78260888a86.08695645 86.08695645 0 0 0 86.08695645-86.08695645v-281.73913066h-289.56521777v367.82608711z m352.17391289-367.82608711v281.73913067a148.69565244 148.69565244 0 0 1-148.69565157 148.69565243H277.21739112a148.69565244 148.69565244 0 0 1-148.69565157-148.69565243v-281.73913067h-3.91304356a35.21739112 35.21739112 0 0 1-35.21739198-35.21739112v-74.34782578a109.56521778 109.56521778 0 0 1 109.56521776-109.56521777h48.52173868L234.17391289 279.8a109.56521778 109.56521778 0 1 1 154.95652178-154.95652178L512 247.75217422l122.90869599-122.90869599a109.56521778 109.56521778 0 1 1 154.95652178 154.95652177l-13.34347822 13.34347823H825.04347823a109.56521778 109.56521778 0 0 1 109.56521776 109.56521776v74.34782579a35.21739112 35.21739112 0 0 1-35.21739198 35.21739111h-3.91304356z m-207.50869512-219.13043467l57.63913066-57.63913066a46.95652177 46.95652177 0 0 0-66.40434843-66.40434756L556.21739112 292.08695645l0.9 1.09565243h130.81304355z m-221.12608711 0a31.53913067 31.53913067 0 0 1 0.9-1.09565244L344.79565244 169.1A46.95652177 46.95652177 0 1 0 278.39130401 235.50434756l53.49130487 53.49130488a31.5 31.5 0 0 1 3.52173868 4.14782578h131.43913066z" p-id="7403" fill="#1296db"></path></svg>