<?xml version="1.0" standalone="no"?><!DOCTYPE svg PUBLIC "-//W3C//DTD SVG 1.1//EN" "http://www.w3.org/Graphics/SVG/1.1/DTD/svg11.dtd"><svg t="1580455061835" class="icon" viewBox="0 0 1024 1024" version="1.1" xmlns="http://www.w3.org/2000/svg" p-id="612" xmlns:xlink="http://www.w3.org/1999/xlink" width="16" height="16"><defs><style type="text/css"></style></defs><path d="M501 906.7H210c-25.9 0-47-21.1-47-47v-10.8c0-25.9 21.1-47 47-47h97.9c7.2 0 13-5.8 13-13V668.6c0-25.9 21.1-47 47-47H492c7.2 0 13-5.8 13-13v-142c0-25.9 21.1-47 47-47h154.5c7.2 0 13-5.8 13-13V247c0-25.9 21.1-47 47-47h113.4c25.9 0 47 21.1 47 47 0 9.4-7.6 17-17 17s-17-7.6-17-17c0-7.2-5.8-13-13-13H766.6c-7.2 0-13 5.8-13 13v159.6c0 25.9-21.1 47-47 47H552c-7.2 0-13 5.8-13 13v142c0 25.9-21.1 47-47 47H367.9c-7.2 0-13 5.8-13 13v120.3c0 25.9-21.1 47-47 47H210c-7.2 0-13 5.8-13 13v10.8c0 7.2 5.8 13 13 13h291c3.1 0 6-1.1 8.4-3.1l378.9-320.3c7.2-6.1 17.9-5.2 24 2 6.1 7.2 5.2 17.9-2 24L531.4 895.6c-8.5 7.2-19.3 11.1-30.4 11.1z" fill="#1296db" p-id="613"></path><path d="M275.6 787.7c-20.8 0-57.9-8.2-132.4-37.3-5-1.9-8.7-6.1-10.2-11.3-1.4-5.1-0.4-10.7 2.9-14.9 62.2-81.2 61.3-110.6 58.1-119.4-9.7-26.5-20-65.5-31.2-119.3-0.3-1.6-0.4-3.3-0.3-4.9l20.8-249.5c0.4-4.6 2.6-8.9 6.2-11.8 3.6-2.9 8.2-4.2 12.8-3.7l105.1 13c7 0.9 12.7 6 14.4 12.8l11 44.7c77.5 34.7 83.4 38.4 86 40 4.9 3.1 8.2 7.9 9.4 13.7 1.9 9.3-0.9 21.4-20.6 50-4.1 6-11.6 8.7-18.6 6.7l-64.4-18.1 0.2 13.7c63 36 77.8 46.7 83.5 51.9 7.2 6.7 15.2 19.2 19.6 80.8 20.3-3.3 36.7-1.2 49.7 6.4 19.4 11.3 26.2 36.5 22.8 54.4-3.1 16.3-13.9 27.4-28.8 29.6-0.1 0-0.2 0-0.4 0.1-2.2 0.3-6 0.8-99.4 0.4h-4.9c-2.7 0-5.3-0.6-7.6-1.8-17.2-8.7-20.6-32.6-24.5-60.4-1.4-10.3-3.9-27.4-6.5-31.6-1.3-1.7-9.2-9.2-50.2-23.9 10.6 40.9 18.5 73.5 23.5 97.1 6.3 29.4-1.7 63.8-23.7 102.3l23.8 11.8c2.6 1.3 4.8 3.2 6.5 5.6 9.5 13.7 10.2 31.8 1.9 53.7-1.8 4.8-5.8 11.3-14.8 15.3-4.7 2.3-10.7 3.9-19.7 3.9z m-99.2-61c27.6 10.3 50.6 17.7 68.5 22.1 21.2 5.2 30.7 5.1 34.4 4.6 2.2-6.7 2.8-12.3 2-16L246 720c-4.4-2.2-7.6-6.1-8.9-10.8s-0.5-9.7 2.2-13.8c24.3-37.3 34.1-68.6 28.9-93-6.1-28.7-16.5-71-31.1-126-1.6-6 0.2-12.4 4.7-16.7 4.5-4.3 11-5.8 16.9-3.9 72 22.9 89.2 36 96.6 45.8 7.8 10.3 10.2 27.4 13 47.2 1.3 9.3 3.6 25.5 6.4 33 67.4 0.2 86.5 0 91.4-0.2 0.6-1.2 1.5-4.4 0.7-9.1-0.9-5.4-3.5-10.2-6.5-11.9-5.9-3.4-18.2-5.9-43.5 1.6-5 1.5-10.4 0.6-14.7-2.4-4.3-3-6.9-7.8-7.2-13-3.1-61.1-8.9-75.4-10.5-78.2-4.1-3.4-20.3-14.9-85.2-51.7-5.2-3-8.5-8.5-8.6-14.5l-0.7-46.2c-0.1-5.4 2.4-10.5 6.6-13.7s9.8-4.4 15-2.9l74.5 20.9c2.7-4.3 4.5-7.5 5.8-10-10.5-5-32.9-15.4-80.6-36.7-4.8-2.1-8.3-6.4-9.6-11.5L291.5 261l-75.9-9.4L196.5 481c10.6 50.2 20.5 87.9 29.4 112.1 10.7 29.2-5 71.9-49.5 133.6z m207.9-258.4zM256 215c-37.5 0-68-30.5-68-68s30.5-68 68-68 68 30.5 68 68-30.5 68-68 68z m0-102c-18.7 0-34 15.3-34 34s15.3 34 34 34 34-15.3 34-34-15.3-34-34-34z" fill="#1296db" p-id="614"></path></svg>