<?xml version="1.0" standalone="no"?><!DOCTYPE svg PUBLIC "-//W3C//DTD SVG 1.1//EN" "http://www.w3.org/Graphics/SVG/1.1/DTD/svg11.dtd"><svg t="1580468107212" class="icon" viewBox="0 0 1024 1024" version="1.1" xmlns="http://www.w3.org/2000/svg" p-id="4437" xmlns:xlink="http://www.w3.org/1999/xlink" width="16" height="16"><defs><style type="text/css"></style></defs><path d="M832.4 464L645.7 277.3 632.4 264c-10.8-10.8-25.1-16.7-40.4-16.7h-0.1c-15.2 0-29.5 6-40.2 16.7L482 333.7l-51.5-51.5c-20.3-20.3-54.8-18.7-77 3.4l-160 160-3.5 3.4 0.1 0.1c-19.1 22.2-19.5 54.3-0.2 73.6l91.5 91.5-3.2 3.2c-10.7 10.9-16.5 25.1-16.5 40.2-0.2 15.2 5.6 29.5 16.5 40.4 9.9 10 22.9 15.8 37 16.6 0.7 13.8 6.5 26.7 16.4 36.7 9.9 10 22.9 15.8 36.9 16.6 0.7 13.8 6.5 26.7 16.4 36.7 9.9 10 22.9 15.8 36.9 16.6 0.7 13.8 6.4 26.8 16.4 36.8 10.7 10.8 25 16.7 40.2 16.7h0.1c15.3 0 29.6-5.9 40.4-16.7l3.1-3.1 3 3c10.7 10.8 25 16.7 40.2 16.7h0.1c15.3 0 29.6-5.9 40.4-16.7l0.1-0.1c9.5-9.7 15.2-22.2 16.3-35.7 13.1-1.3 26.3-7.2 36.8-17.6 10-10 16.1-22.6 17.5-35.8 12.8-1.4 25.6-7.3 35.9-17.5 10.2-10.2 16.4-23.1 17.6-36.6 13.4-1.2 25.9-7.1 35.6-16.8 10.6-10.6 16.6-24.7 17-39.6v-0.2c0.2-15.2-5.4-29.3-15.7-39.7l-4.2-4.2 75.4-75.4c9.7-9.7 14.3-23.8 12.5-38.6-1.5-13-8-25.9-18.1-36.1z m-615.1 31.4c-5.1-5.1-3.5-15.4 3.5-22.5L380.7 313c7-7 17.3-8.6 22.5-3.5l51.5 51.5-74.7 74.7c-10.8 10.8-16.7 25.2-16.7 40.5s6 29.5 16.7 40.2l13.3 13.3c2.4 2.4 4.9 4.5 7.5 6.3-18.5-5.2-39.2-0.9-54.4 13.3l-0.5 0.5-0.9 0.9-36.3 36.3-91.4-91.6z m114.4 175.2c-3.6 3.6-8.2 5.5-13.1 5.5s-9.5-1.9-12.9-5.4c-3.5-3.5-5.3-8-5.2-12.6v-0.6c0-4.8 1.8-9.4 5.3-12.9l67.1-67.1 0.2-0.2c7.3-6.6 18.4-6.4 25.3 0.6 3.5 3.5 5.3 8 5.2 12.6v0.6c0 4.8-1.8 9.4-5.3 12.9l-66.6 66.6z m53.2 53.4l-0.6 0.6c-3.4 3.1-7.7 4.8-12.3 4.8-4.9 0-9.5-1.9-12.9-5.4-3.5-3.5-5.3-8-5.2-12.6v-0.6c0-4.8 1.8-9.4 5.3-12.9l38.8-38.8 54.5-54.5c3.4-3.4 8-5.3 12.9-5.3s9.6 1.9 13 5.4c3.5 3.5 5.3 8 5.2 12.6v0.6c0 4.8-1.8 9.4-5.3 12.9L467.1 642c-0.7 0.6-1.4 1.3-2 1.9L384.9 724z m40.4 58.7c-4.9 0-9.5-1.9-12.9-5.4-3.5-3.5-5.3-8-5.2-12.6v-0.6c0-4.5 1.6-8.8 4.7-12.2 0.2-0.2 0.4-0.3 0.6-0.5l81-81c7.1-6.1 18.2-5.8 25 0.9 3.5 3.5 5.3 8 5.2 12.6v0.6c0 4.8-1.8 9.4-5.3 12.9l-79.9 79.9c-3.6 3.5-8.2 5.4-13.2 5.4z m66.3 48c-3.5 3.5-8.1 5.4-13 5.4s-9.5-1.9-12.9-5.4c-3.5-3.5-5.3-8-5.2-12.6v-0.6c0-4.8 1.8-9.4 5.3-12.9l57.2-57.2 9.5-9.5c3.4-3.4 8-5.3 12.9-5.3s9.6 1.9 13 5.4c3.5 3.5 5.3 8 5.2 12.6v0.6c0 4-1.2 7.8-3.6 10.7l-0.2 0.3c-0.3 0.4-0.6 0.7-0.8 1.1l-0.6 0.6-66.8 66.8z m86.8 0.1c-3.5 3.4-8.1 5.3-13 5.3s-9.5-1.9-12.9-5.4l-3.1-3.1 26-26 4 4c2.8 3.2 4.3 7.6 4.3 12 0 5.1-1.9 9.7-5.3 13.2z m159.8-160.1c-3.6 3.6-8.4 5.7-13.4 5.7-4.4 0-8.4-1.6-11.3-4.5l-53.2-53.2-10.4-10.4c-7.5-7.5-19.8-7.5-27.3 0s-7.5 19.8 0 27.3L633 646l56.2 56.2 0.1 0.1c2.4 2.4 2.5 6.2 2.3 8.2v0.5c-0.3 4.5-2.7 9.3-6.4 13.1-7.7 7.7-17.7 8.3-21.9 4.1l-66.8-66.8-0.7-0.7c-0.5-0.5-0.9-0.9-1.4-1.3-0.1-0.1-0.3-0.2-0.4-0.3-0.4-0.3-0.7-0.6-1.1-0.8-0.3-0.2-0.5-0.3-0.8-0.5-0.3-0.2-0.5-0.3-0.8-0.5-0.4-0.2-0.8-0.4-1.1-0.5l-0.6-0.3c-0.5-0.2-1-0.4-1.5-0.5-0.1 0-0.2-0.1-0.3-0.1-5.3-1.6-11.1-0.8-15.9 2.2-0.1 0-0.2 0.1-0.2 0.1-0.3 0.2-0.6 0.5-1 0.7-0.2 0.2-0.4 0.3-0.6 0.4-0.2 0.1-0.3 0.3-0.5 0.4-0.3 0.3-0.7 0.6-1 0.9-1.9 1.9-3.3 4-4.2 6.4v0.1c-0.2 0.5-0.4 1.1-0.6 1.7v0.1c-0.2 0.6-0.3 1.1-0.4 1.7v0.2c-0.1 0.5-0.2 1.1-0.2 1.6v0.3c0 0.5-0.1 1.1-0.1 1.6v0.3c0 0.5 0 1.1 0.1 1.6v0.3c0.1 0.5 0.1 1 0.2 1.5 0 0.1 0 0.2 0.1 0.3 0.1 0.5 0.2 1 0.4 1.5 0 0.1 0.1 0.2 0.1 0.3 0.2 0.5 0.3 1 0.5 1.5 0 0.1 0.1 0.2 0.1 0.3 0.2 0.5 0.4 1 0.7 1.5 0 0.1 0.1 0.1 0.1 0.2l0.9 1.5c0 0.1 0.1 0.1 0.1 0.2 0.3 0.5 0.7 1 1 1.4l0.1 0.1c0.4 0.5 0.8 0.9 1.2 1.3l67.4 67.5 0.1 0.1c2.4 2.4 2.5 6.2 2.3 8.2v0.5c-0.3 4.5-2.7 9.3-6.4 13.1-7.7 7.7-17.7 8.3-21.9 4.1l-2.1-2.1c-0.6-0.7-1.3-1.4-1.9-2l-6.9-6.9c2.2-6.2 3.4-12.7 3.3-19.4 0.2-15.2-5.6-29.5-16.6-40.4-7-7-15.4-11.9-24.6-14.5 0.8-3.8 1.2-7.8 1.2-11.7 0.2-15.2-5.6-29.5-16.6-40.5-7.1-7-15.6-11.8-24.6-14.4 0.8-3.8 1.2-7.7 1.2-11.7 0.2-15.2-5.6-29.5-16.6-40.5-10.8-10.8-25.1-16.7-40.4-16.7h-0.1c-9.9 0-19.4 2.5-27.7 7.2-2.8-6.3-6.8-12.1-11.8-17.2-2.4-2.4-5-4.5-7.7-6.4 5 1.4 10.2 2.2 15.6 2.2h0.1c15.3 0 29.5-6 40.2-16.7l74.7-74.7 126.3 126.3 64.4 64.4c3.7 3.8 4.5 8.6 4.5 12-0.4 4.6-2.4 9.3-5.9 12.8z m72.5-159.1L735.4 587l-33.1-33.1-126.4-126.3 9.6-9.6c7.5-7.5 7.5-19.8 0-27.3s-19.8-7.5-27.3 0L446.5 502.4c-3.4 3.4-8 5.3-12.9 5.3s-9.6-1.9-13-5.4L407.2 489c-3.4-3.4-5.3-8-5.3-12.9s1.9-9.6 5.4-13.1l88.4-88.4 83.5-83.4c3.4-3.4 8-5.3 12.9-5.3s9.6 1.9 13 5.4l13.3 13.3L805 491.4c4 4 6.6 9 7.2 13.6 0.2 1.7 0.3 4.9-1.5 6.6zM943.3 351.7l-172-172c-11-11-25.5-17-41-17s-30.1 6-41 17l-8.7 8.7c-11 11-17 25.5-17 41s6 30.1 17 41l171.9 171.9c11.3 11.3 26.2 17 41 17 14.9 0 29.7-5.7 41-17l8.7-8.7c11-10.9 17.1-25.5 17.1-41 0-15.3-6.1-29.9-17-40.9zM879.8 415L707.9 243.1c-3.7-3.7-5.7-8.5-5.7-13.7 0-4.4 1.5-8.6 4.1-11.9l199.1 199.1c-7.6 5.9-18.6 5.4-25.6-1.6z m39-12.4L720.3 204.2c3-1.8 6.4-2.8 9.9-2.8 5.2 0 10 2 13.7 5.7l172 172c3.7 3.7 5.7 8.5 5.7 13.6 0 3.5-1 6.9-2.8 9.9zM343.4 175.1l-8.7-8.7c-10.9-11-25.4-17-40.9-17h-0.1c-15.5 0-30 6-41 17l-172 171.9c-22.6 22.6-22.6 59.4 0 82l8.7 8.7c11 11 25.5 17 41 17s30.1-6 41-17l171.9-171.9c22.7-22.6 22.7-59.3 0.1-82zM108.1 365.7l172-171.9c3.7-3.7 8.5-5.7 13.7-5.7 4.4 0 8.6 1.5 12 4.3L106.7 391.5c-6.1-7.6-5.7-18.8 1.4-25.8zM316 229.8L144.1 401.7c-3.7 3.7-8.5 5.7-13.7 5.7-3.5 0-6.8-0.9-9.7-2.6L319 206.5c4.4 7.3 3.4 17-3 23.3z" p-id="4438" fill="#1296db"></path></svg>