<?xml version="1.0" standalone="no"?><!DOCTYPE svg PUBLIC "-//W3C//DTD SVG 1.1//EN" "http://www.w3.org/Graphics/SVG/1.1/DTD/svg11.dtd"><svg t="1580271059462" class="icon" viewBox="0 0 1024 1024" version="1.1" xmlns="http://www.w3.org/2000/svg" p-id="1828" xmlns:xlink="http://www.w3.org/1999/xlink" width="16" height="16"><defs><style type="text/css"></style></defs><path d="M388.5 411c0-21.4-17.6-39-39.2-39h-82.4c-21.6 0-39.2 17.5-39.2 39s17.6 39 39.2 39h82.4c21.6 0 39.2-17.5 39.2-39zM553.4 452c21.6 0 39.2-17.5 39.2-39 0-21.4-17.6-39-39.2-39H471c-21.6 0-39.2 17.5-39.2 39s17.6 39 39.2 39h82.4zM757.5 452c21.6 0 39.2-17.5 39.2-39 0-21.4-17.6-39-39.2-39h-82.4c-21.6 0-39.2 17.5-39.2 39s17.6 39 39.2 39h82.4z" p-id="1829" fill="#1296db"></path><path d="M878.7 92.1h-733c-45 0-81.7 36.4-81.7 81.2v480c0 44.8 36.6 81.2 81.7 81.2h159.7c22.1 0 40.2-18 40.2-40s-18.1-40-40.2-40H145.7c-0.6 0-1.3-0.7-1.3-1.2v-480c0-0.6 0.7-1.2 1.3-1.2h733c0.6 0 1.3 0.7 1.3 1.2v480c0 0.6-0.7 1.2-1.3 1.2h-366v0.1c-11.1-0.6-22.3 3.2-30.7 11.6L284.5 862.6c-15.6 15.6-15.6 41 0 56.6 15.6 15.6 41.2 15.6 56.9 0L527 734.6h351.7c45 0 81.7-36.4 81.7-81.2v-480c0-44.8-36.7-81.3-81.7-81.3z" p-id="1830" fill="#1296db"></path></svg>